<?xml version="1.0" standalone="no"?>
<!DOCTYPE svg PUBLIC "-//W3C//DTD SVG 20010904//EN"
 "http://www.w3.org/TR/2001/REC-SVG-20010904/DTD/svg10.dtd">
<svg version="1.0" xmlns="http://www.w3.org/2000/svg"
 width="1280.000000pt" height="1243.000000pt" viewBox="0 0 1280.000000 1243.000000"
 preserveAspectRatio="xMidYMid meet">
<metadata>
Created by potrace 1.15, written by Peter Selinger 2001-2017
</metadata>
<g transform="translate(0.000000,1243.000000) scale(0.100000,-0.100000)"
fill="#000000" stroke="none">
<path d="M12250 12414 c-23 -10 -596 -575 -1670 -1649 l-1635 -1635 -45 18
c-41 15 -107 17 -700 20 l-655 3 -657 657 c-362 361 -658 660 -658 664 0 4 12
2 28 -4 17 -8 87 -12 187 -12 145 0 168 3 248 27 310 95 535 326 619 635 31
114 31 327 0 435 -80 279 -236 469 -483 587 -128 61 -221 82 -369 84 -246 2
-446 -75 -617 -238 -125 -118 -196 -233 -249 -401 -26 -83 -29 -102 -29 -245
0 -131 4 -167 23 -235 32 -112 91 -227 166 -321 l63 -81 -66 19 c-89 25 -225
24 -326 -2 -157 -40 -157 -40 -770 -649 -1564 -1554 -1481 -1470 -1516 -1544
-20 -44 -34 -95 -40 -145 -5 -42 -8 -384 -7 -760 l3 -682 -1352 0 -1353 0 0
-225 0 -225 1350 0 1349 0 3 -1627 3 -1628 22 -78 c58 -204 195 -373 373 -461
112 -55 201 -76 326 -76 324 0 606 216 697 537 l22 78 3 1628 3 1627 1084 0
1085 0 0 -2090 0 -2090 -3160 0 -3160 0 0 -385 0 -385 3385 0 3385 0 0 2475 0
2475 390 0 390 0 0 225 0 225 -1702 0 -1703 0 3 203 3 203 894 894 895 895
387 -386 c214 -212 402 -395 418 -406 17 -11 57 -31 90 -44 l60 -24 729 -3
c428 -2 762 1 809 7 202 24 353 166 387 364 12 65 9 93 -15 207 -5 22 152 183
1470 1500 l1475 1475 0 -5148 0 -5147 170 0 170 0 0 5377 0 5376 -24 41 c-44
75 -128 103 -206 70z"/>
<path d="M1400 1519 c-198 -22 -365 -68 -585 -159 -250 -104 -474 -159 -717
-176 l-98 -7 0 -590 0 -590 107 7 c217 13 415 58 613 138 251 101 307 121 420
149 208 53 450 71 658 48 201 -21 380 -71 617 -171 334 -141 644 -191 976
-158 206 21 381 68 594 158 236 99 384 141 590 167 151 19 286 19 445 0 209
-25 356 -67 625 -180 423 -178 886 -202 1323 -69 48 15 145 51 217 82 164 69
244 97 370 128 293 72 611 70 906 -5 112 -28 172 -49 419 -149 246 -100 435
-136 715 -136 303 -1 501 40 786 160 168 71 248 99 374 130 292 71 613 70 905
-5 113 -28 169 -48 420 -149 198 -80 396 -125 613 -138 l107 -7 0 590 0 589
-137 12 c-248 22 -447 74 -738 195 -135 56 -254 91 -405 119 -93 17 -154 21
-320 21 -307 0 -457 -31 -800 -168 -281 -112 -422 -147 -663 -167 -317 -26
-620 32 -1012 195 -135 56 -254 91 -405 119 -93 17 -154 21 -320 21 -307 0
-458 -31 -800 -168 -210 -84 -321 -117 -484 -145 -395 -67 -726 -19 -1191 173
-135 57 -255 92 -405 119 -93 17 -154 21 -320 21 -307 0 -457 -31 -800 -168
-205 -81 -279 -105 -422 -134 -228 -47 -460 -51 -694 -11 -161 28 -296 68
-486 146 -89 36 -188 74 -222 84 -249 77 -535 106 -776 79z"/>
</g>
</svg>
