<?xml version="1.0" standalone="no"?>
<!DOCTYPE svg PUBLIC "-//W3C//DTD SVG 20010904//EN"
 "http://www.w3.org/TR/2001/REC-SVG-20010904/DTD/svg10.dtd">
<svg version="1.0" xmlns="http://www.w3.org/2000/svg"
 width="1280.000000pt" height="940.000000pt" viewBox="0 0 1280.000000 940.000000"
 preserveAspectRatio="xMidYMid meet">
<metadata>
Created by potrace 1.15, written by Peter Selinger 2001-2017
</metadata>
<g transform="translate(0.000000,940.000000) scale(0.100000,-0.100000)"
fill="#000000" stroke="none">
<path d="M9532 9377 l-22 -23 0 -641 c0 -616 1 -642 19 -664 l19 -24 596 0
595 0 23 23 23 23 3 622 c1 342 0 632 -3 645 -3 12 -14 31 -25 42 -19 19 -36
20 -613 20 l-594 0 -21 -23z"/>
<path d="M8453 8946 l-28 -24 -3 -289 c-2 -158 0 -299 3 -311 3 -13 18 -35 32
-48 l26 -24 298 0 297 0 31 26 31 26 0 308 0 307 -26 27 -27 26 -303 0 -303 0
-28 -24z"/>
<path d="M7445 8905 l-25 -24 0 -269 c0 -251 1 -271 19 -293 19 -24 20 -24
282 -27 289 -3 311 0 328 50 7 19 11 128 11 275 0 255 -5 291 -45 307 -9 3
-136 6 -281 6 l-265 0 -24 -25z"/>
<path d="M6510 8863 c-20 -26 -21 -35 -18 -261 3 -232 3 -234 27 -253 21 -17
42 -19 251 -19 215 0 229 1 254 21 l26 20 0 240 c0 226 -1 240 -20 259 -19 19
-33 20 -259 20 l-240 0 -21 -27z"/>
<path d="M5667 8832 c-15 -16 -17 -47 -17 -225 0 -201 0 -206 22 -221 19 -13
57 -16 219 -16 l198 0 21 27 c20 26 21 36 18 226 -3 183 -5 200 -22 213 -16
11 -63 14 -221 14 -183 0 -203 -2 -218 -18z"/>
<path d="M4896 8788 c-13 -18 -16 -54 -16 -180 0 -210 -13 -198 204 -198 136
0 167 3 180 16 13 13 16 44 16 188 0 120 -4 176 -12 184 -8 8 -64 12 -184 12
-167 0 -173 -1 -188 -22z"/>
<path d="M4222 8754 c-21 -14 -22 -22 -22 -140 0 -165 -1 -164 155 -164 110 0
117 1 140 25 23 23 25 31 25 130 0 101 -8 140 -34 157 -6 4 -63 8 -126 8 -89
0 -121 -4 -138 -16z"/>
<path d="M3606 8708 c-11 -16 -16 -46 -16 -98 0 -111 9 -120 116 -120 123 0
124 1 124 118 0 63 -4 102 -12 110 -8 8 -46 12 -104 12 -85 0 -94 -2 -108 -22z"/>
<path d="M3077 8683 c-12 -11 -8 -128 5 -141 7 -7 37 -12 68 -12 31 0 61 5 68
12 7 7 12 37 12 68 0 31 -5 61 -12 68 -13 13 -130 17 -141 5z"/>
<path d="M2632 8613 c3 -35 6 -38 36 -41 31 -3 32 -2 32 37 0 40 -1 41 -36 41
-35 0 -35 -1 -32 -37z"/>
<path d="M881 6645 c-442 -80 -787 -431 -865 -880 -14 -80 -16 -352 -16 -2430
0 -2564 -3 -2426 59 -2609 74 -217 226 -416 415 -540 102 -68 160 -96 261
-129 187 -61 -254 -57 5665 -57 5919 0 5478 -4 5665 57 313 102 569 355 676
669 62 183 59 45 59 2609 0 2078 -2 2350 -16 2430 -70 402 -344 718 -737 849
-145 49 172 46 -5656 45 -4488 -1 -5449 -3 -5510 -14z"/>
</g>
</svg>
