<?xml version="1.0" standalone="no"?>
<!DOCTYPE svg PUBLIC "-//W3C//DTD SVG 20010904//EN"
 "http://www.w3.org/TR/2001/REC-SVG-20010904/DTD/svg10.dtd">
<svg version="1.0" xmlns="http://www.w3.org/2000/svg"
 width="998.000000pt" height="1280.000000pt" viewBox="0 0 998.000000 1280.000000"
 preserveAspectRatio="xMidYMid meet">
<metadata>
Created by potrace 1.15, written by Peter Selinger 2001-2017
</metadata>
<g transform="translate(0.000000,1280.000000) scale(0.100000,-0.100000)"
fill="#000000" stroke="none">
<path d="M7070 12795 c-8 -2 -49 -9 -90 -15 -405 -66 -764 -368 -906 -762 -65
-180 -83 -422 -45 -611 91 -453 419 -792 882 -914 94 -24 121 -27 274 -27 181
1 247 11 391 59 338 113 621 395 733 731 121 359 60 757 -160 1054 -180 243
-425 402 -721 466 -66 14 -321 28 -358 19z"/>
<path d="M2240 10419 c-71 -29 -82 -120 -20 -166 13 -10 237 -79 1215 -373
143 -43 427 -129 630 -190 204 -61 487 -147 630 -190 143 -43 424 -128 625
-188 201 -61 435 -131 520 -157 85 -25 183 -55 216 -66 l61 -20 52 -110 c265
-564 472 -1237 531 -1719 24 -200 29 -222 50 -245 29 -31 46 -33 222 -24 341
17 605 30 1278 64 388 19 791 39 895 45 105 5 294 14 420 20 323 15 350 18
379 41 42 33 42 73 2 228 -116 451 -542 1465 -896 2131 -247 465 -502 860
-580 897 -19 8 -580 13 -2230 17 -1213 3 -2603 8 -3090 11 -595 3 -893 1 -910
-6z"/>
<path d="M4119 9089 c-42 -22 -121 -78 -175 -125 -206 -179 -454 -250 -879
-254 -111 -2 -129 1 -240 35 -152 46 -377 124 -476 163 -112 45 -140 48 -187
22 -49 -28 -70 -65 -122 -216 -55 -158 -164 -377 -248 -494 -85 -120 -269
-306 -392 -397 -92 -68 -253 -169 -335 -211 -54 -27 -76 -53 -82 -100 -7 -53
9 -80 112 -190 281 -299 601 -413 1089 -391 138 7 229 19 741 95 123 19 216
26 335 27 187 2 269 -10 374 -55 62 -27 73 -29 107 -19 60 18 99 80 85 135 -3
14 -18 39 -33 57 -34 40 -32 62 14 154 111 221 420 533 919 927 96 76 164 137
168 150 14 55 7 89 -28 124 -40 40 -58 41 -186 19 -47 -8 -104 -15 -126 -15
-37 0 -46 5 -79 46 -58 70 -118 183 -160 297 -43 116 -105 257 -114 257 -3 0
-40 -19 -82 -41z m17 -389 c21 -47 51 -107 66 -133 15 -26 28 -50 28 -52 0
-13 -248 2 -453 27 l-97 11 82 31 c105 40 197 91 273 154 33 27 61 49 61 48 1
0 19 -39 40 -86z m-1814 -29 c90 -38 419 -144 612 -197 460 -125 867 -186
1253 -188 112 -1 203 -3 202 -6 0 -3 -43 -41 -96 -85 -222 -186 -459 -426
-580 -589 -72 -97 -159 -257 -165 -306 -3 -28 12 -27 -193 -15 -153 10 -282
-3 -700 -66 -585 -90 -865 -79 -1110 43 -81 41 -265 178 -265 199 0 3 38 30
84 58 184 112 364 265 498 420 163 188 289 405 374 643 22 59 40 108 41 108 1
0 21 -8 45 -19z"/>
<path d="M6773 6941 c-36 -9 -61 -37 -72 -78 -6 -21 -36 -202 -67 -403 -73
-479 -64 -420 -134 -870 -34 -217 -65 -420 -70 -450 -5 -30 -36 -233 -70 -450
-34 -217 -65 -420 -70 -450 -84 -546 -501 -3225 -581 -3735 -29 -181 -53 -354
-53 -383 -1 -47 3 -57 27 -78 36 -31 87 -32 121 -1 14 12 402 715 862 1562
459 847 973 1793 1141 2103 168 309 308 561 310 558 3 -2 8 -19 13 -38 59
-250 166 -702 230 -968 44 -184 103 -429 130 -545 65 -274 143 -599 180 -755
45 -188 126 -526 166 -695 161 -682 287 -1202 295 -1217 24 -45 78 -59 128
-33 34 17 47 49 55 130 4 33 10 105 16 160 12 126 108 1127 120 1255 5 52 25
260 45 462 19 203 51 533 70 736 20 202 40 410 45 462 5 52 28 286 50 520 22
234 45 470 50 525 6 55 14 145 20 200 9 96 81 844 100 1050 6 55 14 145 20
200 5 55 30 313 55 574 49 508 49 515 1 546 -22 14 -151 20 -971 45 -187 6
-477 15 -645 20 -168 5 -543 16 -835 25 -291 8 -559 16 -595 18 -36 2 -75 1
-87 -2z"/>
<path d="M152 6624 c-168 -83 -202 -297 -68 -430 50 -51 122 -84 182 -84 14 0
24 -8 27 -22 5 -20 608 -3287 787 -4263 32 -176 95 -518 140 -760 45 -242 97
-525 116 -630 41 -223 47 -245 82 -287 52 -62 -42 -58 1537 -58 1581 0 1485
-4 1538 59 37 44 42 71 71 366 57 583 110 1116 176 1785 38 388 96 984 130
1325 34 341 86 870 116 1175 30 305 65 670 79 810 14 140 30 305 36 367 l12
111 41 11 c60 15 131 64 163 112 50 76 58 201 17 281 -21 41 -80 94 -132 119
-45 22 -61 23 -412 30 -201 4 -1315 8 -2476 8 l-2110 1 -52 -26z m1238 -526
c1 -7 20 -165 43 -351 24 -186 41 -340 38 -342 -8 -9 -690 -5 -695 4 -3 4 -33
156 -66 337 -33 181 -62 337 -64 347 -4 16 19 17 370 17 292 0 374 -3 374 -12z
m1196 -338 c6 -190 9 -348 7 -352 -2 -5 -184 -8 -404 -8 -311 0 -400 3 -403
13 -2 6 -20 152 -41 322 -20 171 -39 325 -42 343 l-5 32 438 -2 439 -3 11
-345z m1139 341 c4 -8 -12 -506 -21 -629 l-6 -72 -396 2 -397 3 -7 200 c-3
110 -8 269 -11 353 l-5 153 419 -1 c230 -1 421 -5 424 -9z m1040 -28 c-3 -16
-19 -167 -35 -338 -17 -170 -32 -316 -35 -322 -3 -10 -81 -13 -345 -13 l-340
0 0 38 c0 20 5 129 10 242 5 113 10 253 11 313 l1 107 369 0 369 0 -5 -27z
m-3208 -1318 c23 -187 44 -355 47 -373 l5 -32 -322 2 -321 3 -68 365 c-37 201
-68 368 -68 373 0 4 154 6 342 5 l343 -3 42 -340z m1057 128 c3 -120 9 -289
13 -376 l6 -157 -358 2 -359 3 -38 305 c-20 168 -41 335 -44 373 l-7 67 390 0
390 0 7 -217z m1073 100 c-4 -65 -9 -201 -12 -303 -3 -102 -8 -218 -11 -257
l-6 -73 -359 0 -359 0 -1 28 c0 15 -6 182 -12 370 -7 189 -10 346 -8 348 2 2
178 4 389 4 l385 0 -6 -117z m979 85 c-3 -18 -19 -177 -36 -353 -17 -176 -33
-330 -35 -342 l-5 -23 -310 0 -310 0 0 33 c1 26 28 706 30 715 0 1 151 2 335
2 l336 0 -5 -32z m-2981 -1353 l40 -325 -291 0 -292 0 -17 98 c-10 53 -36 199
-59 325 l-42 227 311 0 311 0 39 -325z m959 203 c3 -68 8 -214 12 -325 l6
-203 -313 0 -314 0 -34 283 c-18 155 -37 301 -41 325 l-7 42 342 0 343 0 6
-122z m1003 20 c-4 -57 -10 -203 -13 -325 l-7 -223 -327 0 -328 0 -6 123 c-3
67 -9 213 -12 325 l-7 202 353 0 353 0 -6 -102z m913 85 c0 -10 -14 -153 -30
-318 -16 -165 -30 -303 -30 -307 0 -5 -129 -8 -286 -8 l-287 0 6 58 c4 31 9
154 12 272 3 118 8 239 11 268 l5 52 300 0 c278 0 299 -1 299 -17z m-2790
-970 c0 -16 16 -154 35 -308 19 -154 35 -288 35 -297 0 -17 -19 -18 -260 -18
-143 0 -260 2 -260 5 0 3 -7 38 -15 78 -8 40 -32 173 -55 297 -22 124 -43 235
-45 248 l-5 22 285 0 285 0 0 -27z m904 -80 c3 -60 9 -206 12 -325 l7 -218
-270 0 -269 0 -23 193 c-13 105 -31 252 -40 325 l-17 132 297 0 296 0 7 -107z
m932 -75 c-3 -101 -9 -250 -13 -331 l-6 -149 -292 3 -293 3 -6 146 c-3 80 -9
227 -12 328 l-6 182 317 0 318 0 -7 -182z m859 140 c-3 -24 -19 -175 -34 -336
-16 -161 -30 -294 -32 -295 -2 -1 -116 -1 -253 1 l-249 4 7 206 c3 114 9 264
13 335 l6 127 274 0 274 0 -6 -42z m-2543 -1228 c20 -168 40 -331 44 -362 l7
-58 -232 0 c-127 0 -231 3 -231 8 0 4 -16 93 -36 197 -73 396 -94 509 -94 517
0 5 113 7 252 6 l252 -3 38 -305z m782 218 c9 -136 22 -629 17 -634 -2 -2
-103 -4 -223 -4 -201 0 -218 1 -218 18 0 9 -11 105 -25 212 -13 107 -32 254
-40 325 -9 72 -18 140 -21 153 l-4 22 254 0 254 0 6 -92z m872 78 c1 -2 -12
-337 -21 -544 l-8 -172 -256 2 -256 3 -12 290 c-6 160 -11 323 -12 364 l-1 74
283 -8 c155 -4 282 -8 283 -9z m793 -12 c3 -3 -55 -611 -65 -671 l-5 -33 -221
0 -221 0 6 168 c4 92 10 254 14 360 l6 193 241 -7 c133 -4 243 -8 245 -10z
m-2355 -1041 c7 -47 76 -601 76 -614 0 -5 -84 -9 -200 -9 -199 0 -200 0 -205
23 -4 18 -88 470 -112 605 l-6 32 221 0 220 0 6 -37z m727 -143 c4 -96 8 -242
9 -325 l2 -150 -176 -3 c-97 -1 -176 1 -176 5 0 11 -69 573 -76 616 l-6 37
209 -2 208 -3 6 -175z m795 128 c-3 -29 -8 -147 -11 -263 -3 -116 -8 -240 -12
-278 l-6 -67 -221 2 -221 3 -6 180 c-4 99 -9 246 -12 328 l-4 147 249 0 249 0
-5 -52z m734 35 c0 -34 -60 -618 -65 -630 -3 -10 -52 -13 -196 -13 l-192 0 7
98 c3 53 9 198 12 322 4 124 8 228 11 233 2 4 98 7 214 7 192 0 209 -1 209
-17z"/>
</g>
</svg>
